<mxfile host="app.diagrams.net" agent="Mozilla/5.0 (Windows NT 10.0; Win64; x64) AppleWebKit/537.36 (KHTML, like Gecko) Chrome/129.0.0.0 Safari/537.36" version="24.7.17">
  <diagram name="Page-1" id="60B-oAdphWU7gCOwKH6Q">
    <mxGraphModel dx="992" dy="428" grid="1" gridSize="10" guides="1" tooltips="1" connect="1" arrows="1" fold="1" page="1" pageScale="1" pageWidth="850" pageHeight="1100" math="0" shadow="0">
      <root>
        <mxCell id="0" />
        <mxCell id="1" parent="0" />
        <mxCell id="hhRNV23fOFpkwc6YgdMK-21" style="edgeStyle=orthogonalEdgeStyle;rounded=0;orthogonalLoop=1;jettySize=auto;html=1;entryX=0.5;entryY=0;entryDx=0;entryDy=0;" parent="1" source="hhRNV23fOFpkwc6YgdMK-1" target="hhRNV23fOFpkwc6YgdMK-3" edge="1">
          <mxGeometry relative="1" as="geometry" />
        </mxCell>
        <mxCell id="hhRNV23fOFpkwc6YgdMK-1" value="Start" style="strokeWidth=2;html=1;shape=mxgraph.flowchart.start_1;whiteSpace=wrap;" parent="1" vertex="1">
          <mxGeometry x="338.75" y="110" width="57.5" height="40" as="geometry" />
        </mxCell>
        <mxCell id="hhRNV23fOFpkwc6YgdMK-2" value="Edit" style="rounded=1;whiteSpace=wrap;html=1;absoluteArcSize=1;arcSize=14;strokeWidth=2;" parent="1" vertex="1">
          <mxGeometry x="180" y="230" width="50" height="40" as="geometry" />
        </mxCell>
        <mxCell id="0VFMk2iIivQLIlKOtwQV-9" style="edgeStyle=none;curved=1;rounded=0;orthogonalLoop=1;jettySize=auto;html=1;fontSize=12;startSize=8;endSize=8;" parent="1" source="hhRNV23fOFpkwc6YgdMK-3" target="hhRNV23fOFpkwc6YgdMK-4" edge="1">
          <mxGeometry relative="1" as="geometry" />
        </mxCell>
        <mxCell id="hhRNV23fOFpkwc6YgdMK-3" value="User click Edit button" style="rounded=1;whiteSpace=wrap;html=1;absoluteArcSize=1;arcSize=14;strokeWidth=2;" parent="1" vertex="1">
          <mxGeometry x="297.5" y="180" width="140" height="40" as="geometry" />
        </mxCell>
        <mxCell id="hhRNV23fOFpkwc6YgdMK-4" value="Show Edit Task Form" style="strokeWidth=2;html=1;shape=mxgraph.flowchart.display;whiteSpace=wrap;" parent="1" vertex="1">
          <mxGeometry x="292.5" y="250" width="150" height="60" as="geometry" />
        </mxCell>
        <mxCell id="hhRNV23fOFpkwc6YgdMK-5" value="&lt;div&gt;&lt;br&gt;&lt;/div&gt;User Edit Input&lt;div&gt;Task name = new_name,&amp;nbsp;&lt;/div&gt;&lt;div&gt;Task Description = new_description,&lt;/div&gt;&lt;div&gt;Due Date = new_due_date,&amp;nbsp;&lt;/div&gt;&lt;div&gt;Priority = new_priority&lt;/div&gt;" style="html=1;strokeWidth=2;shape=manualInput;whiteSpace=wrap;rounded=1;size=26;arcSize=11;" parent="1" vertex="1">
          <mxGeometry x="266" y="330" width="203" height="110" as="geometry" />
        </mxCell>
        <mxCell id="hhRNV23fOFpkwc6YgdMK-19" style="edgeStyle=orthogonalEdgeStyle;rounded=0;orthogonalLoop=1;jettySize=auto;html=1;entryX=0.5;entryY=0;entryDx=0;entryDy=0;" parent="1" source="hhRNV23fOFpkwc6YgdMK-6" target="hhRNV23fOFpkwc6YgdMK-10" edge="1">
          <mxGeometry relative="1" as="geometry" />
        </mxCell>
        <mxCell id="hhRNV23fOFpkwc6YgdMK-6" value="If User click save&lt;div&gt;Post Request&lt;/div&gt;" style="strokeWidth=2;html=1;shape=mxgraph.flowchart.decision;whiteSpace=wrap;" parent="1" vertex="1">
          <mxGeometry x="300" y="470" width="135" height="100" as="geometry" />
        </mxCell>
        <mxCell id="hhRNV23fOFpkwc6YgdMK-10" value="Validate form input" style="rounded=1;whiteSpace=wrap;html=1;absoluteArcSize=1;arcSize=14;strokeWidth=2;" parent="1" vertex="1">
          <mxGeometry x="310" y="600" width="115" height="40" as="geometry" />
        </mxCell>
        <mxCell id="0VFMk2iIivQLIlKOtwQV-10" style="edgeStyle=none;curved=1;rounded=0;orthogonalLoop=1;jettySize=auto;html=1;entryX=0.5;entryY=0;entryDx=0;entryDy=0;fontSize=12;startSize=8;endSize=8;" parent="1" source="hhRNV23fOFpkwc6YgdMK-11" target="0VFMk2iIivQLIlKOtwQV-2" edge="1">
          <mxGeometry relative="1" as="geometry" />
        </mxCell>
        <mxCell id="hhRNV23fOFpkwc6YgdMK-11" value="If all input are filled" style="strokeWidth=2;html=1;shape=mxgraph.flowchart.decision;whiteSpace=wrap;" parent="1" vertex="1">
          <mxGeometry x="300" y="680" width="135" height="70" as="geometry" />
        </mxCell>
        <mxCell id="hhRNV23fOFpkwc6YgdMK-12" value="Yes" style="text;html=1;align=center;verticalAlign=middle;whiteSpace=wrap;rounded=0;" parent="1" vertex="1">
          <mxGeometry x="356.25" y="640" width="60" height="30" as="geometry" />
        </mxCell>
        <mxCell id="hhRNV23fOFpkwc6YgdMK-13" value="No" style="text;html=1;align=center;verticalAlign=middle;whiteSpace=wrap;rounded=0;" parent="1" vertex="1">
          <mxGeometry x="265" y="685" width="27.5" height="30" as="geometry" />
        </mxCell>
        <mxCell id="hhRNV23fOFpkwc6YgdMK-15" value="Please filled out [missing input]" style="strokeWidth=2;html=1;shape=mxgraph.flowchart.display;whiteSpace=wrap;" parent="1" vertex="1">
          <mxGeometry x="110" y="685" width="120" height="60" as="geometry" />
        </mxCell>
        <mxCell id="hhRNV23fOFpkwc6YgdMK-17" style="edgeStyle=orthogonalEdgeStyle;rounded=0;orthogonalLoop=1;jettySize=auto;html=1;entryX=0.5;entryY=0;entryDx=0;entryDy=0;entryPerimeter=0;" parent="1" source="hhRNV23fOFpkwc6YgdMK-10" target="hhRNV23fOFpkwc6YgdMK-11" edge="1">
          <mxGeometry relative="1" as="geometry" />
        </mxCell>
        <mxCell id="hhRNV23fOFpkwc6YgdMK-26" style="edgeStyle=orthogonalEdgeStyle;rounded=0;orthogonalLoop=1;jettySize=auto;html=1;entryX=0.5;entryY=0;entryDx=0;entryDy=0;entryPerimeter=0;" parent="1" source="hhRNV23fOFpkwc6YgdMK-5" target="hhRNV23fOFpkwc6YgdMK-6" edge="1">
          <mxGeometry relative="1" as="geometry" />
        </mxCell>
        <mxCell id="UAP9oiiPjU8Sd_jXd_LN-6" style="edgeStyle=orthogonalEdgeStyle;rounded=0;orthogonalLoop=1;jettySize=auto;html=1;" edge="1" parent="1" source="0VFMk2iIivQLIlKOtwQV-2" target="UAP9oiiPjU8Sd_jXd_LN-5">
          <mxGeometry relative="1" as="geometry" />
        </mxCell>
        <mxCell id="0VFMk2iIivQLIlKOtwQV-2" value="Update task&amp;nbsp;" style="rounded=1;whiteSpace=wrap;html=1;absoluteArcSize=1;arcSize=14;strokeWidth=2;" parent="1" vertex="1">
          <mxGeometry x="323.75" y="780" width="87.5" height="40" as="geometry" />
        </mxCell>
        <mxCell id="0VFMk2iIivQLIlKOtwQV-13" style="edgeStyle=none;curved=1;rounded=0;orthogonalLoop=1;jettySize=auto;html=1;entryX=0.5;entryY=0;entryDx=0;entryDy=0;fontSize=12;startSize=8;endSize=8;" parent="1" source="0VFMk2iIivQLIlKOtwQV-3" target="0VFMk2iIivQLIlKOtwQV-4" edge="1">
          <mxGeometry relative="1" as="geometry" />
        </mxCell>
        <mxCell id="0VFMk2iIivQLIlKOtwQV-3" value="Sort tasks [Insertion sorts]&lt;div&gt;by Due date&lt;/div&gt;" style="rounded=1;whiteSpace=wrap;html=1;absoluteArcSize=1;arcSize=14;strokeWidth=2;" parent="1" vertex="1">
          <mxGeometry x="292.5" y="930" width="150" height="50" as="geometry" />
        </mxCell>
        <mxCell id="0VFMk2iIivQLIlKOtwQV-14" style="edgeStyle=none;curved=1;rounded=0;orthogonalLoop=1;jettySize=auto;html=1;fontSize=12;startSize=8;endSize=8;" parent="1" source="0VFMk2iIivQLIlKOtwQV-4" target="0VFMk2iIivQLIlKOtwQV-5" edge="1">
          <mxGeometry relative="1" as="geometry" />
        </mxCell>
        <mxCell id="0VFMk2iIivQLIlKOtwQV-4" value="Incompleted tasks&amp;nbsp;&lt;div&gt;+&amp;nbsp;&lt;/div&gt;&lt;div&gt;completed tasks&lt;/div&gt;&lt;div&gt;(move at the end of list)&lt;/div&gt;" style="rounded=1;whiteSpace=wrap;html=1;absoluteArcSize=1;arcSize=14;strokeWidth=2;" parent="1" vertex="1">
          <mxGeometry x="296.25" y="1010" width="145" height="70" as="geometry" />
        </mxCell>
        <mxCell id="UAP9oiiPjU8Sd_jXd_LN-3" style="edgeStyle=orthogonalEdgeStyle;rounded=0;orthogonalLoop=1;jettySize=auto;html=1;" edge="1" parent="1" source="0VFMk2iIivQLIlKOtwQV-5" target="UAP9oiiPjU8Sd_jXd_LN-1">
          <mxGeometry relative="1" as="geometry" />
        </mxCell>
        <mxCell id="0VFMk2iIivQLIlKOtwQV-5" value="Updated tasks list" style="strokeWidth=2;html=1;shape=mxgraph.flowchart.display;whiteSpace=wrap;" parent="1" vertex="1">
          <mxGeometry x="305" y="1110" width="125" height="60" as="geometry" />
        </mxCell>
        <mxCell id="0VFMk2iIivQLIlKOtwQV-6" value="End" style="strokeWidth=2;html=1;shape=mxgraph.flowchart.start_1;whiteSpace=wrap;" parent="1" vertex="1">
          <mxGeometry x="340" y="1270" width="55" height="40" as="geometry" />
        </mxCell>
        <mxCell id="0VFMk2iIivQLIlKOtwQV-8" style="edgeStyle=none;curved=1;rounded=0;orthogonalLoop=1;jettySize=auto;html=1;entryX=0.491;entryY=0.135;entryDx=0;entryDy=0;entryPerimeter=0;fontSize=12;startSize=8;endSize=8;" parent="1" source="hhRNV23fOFpkwc6YgdMK-4" target="hhRNV23fOFpkwc6YgdMK-5" edge="1">
          <mxGeometry relative="1" as="geometry" />
        </mxCell>
        <mxCell id="0VFMk2iIivQLIlKOtwQV-17" style="edgeStyle=none;curved=1;rounded=0;orthogonalLoop=1;jettySize=auto;html=1;entryX=1;entryY=0.5;entryDx=0;entryDy=0;entryPerimeter=0;fontSize=12;startSize=8;endSize=8;" parent="1" source="hhRNV23fOFpkwc6YgdMK-11" target="hhRNV23fOFpkwc6YgdMK-15" edge="1">
          <mxGeometry relative="1" as="geometry" />
        </mxCell>
        <mxCell id="0VFMk2iIivQLIlKOtwQV-20" value="" style="endArrow=none;html=1;rounded=0;fontSize=12;startSize=8;endSize=8;curved=1;exitX=0.5;exitY=0;exitDx=0;exitDy=0;exitPerimeter=0;" parent="1" source="hhRNV23fOFpkwc6YgdMK-15" edge="1">
          <mxGeometry width="50" height="50" relative="1" as="geometry">
            <mxPoint x="180" y="670" as="sourcePoint" />
            <mxPoint x="170" y="520" as="targetPoint" />
          </mxGeometry>
        </mxCell>
        <mxCell id="0VFMk2iIivQLIlKOtwQV-21" value="" style="endArrow=classic;html=1;rounded=0;fontSize=12;startSize=8;endSize=8;curved=1;entryX=0;entryY=0.5;entryDx=0;entryDy=0;entryPerimeter=0;" parent="1" target="hhRNV23fOFpkwc6YgdMK-6" edge="1">
          <mxGeometry width="50" height="50" relative="1" as="geometry">
            <mxPoint x="170" y="520" as="sourcePoint" />
            <mxPoint x="330" y="550" as="targetPoint" />
          </mxGeometry>
        </mxCell>
        <mxCell id="UAP9oiiPjU8Sd_jXd_LN-4" style="edgeStyle=orthogonalEdgeStyle;rounded=0;orthogonalLoop=1;jettySize=auto;html=1;" edge="1" parent="1" source="UAP9oiiPjU8Sd_jXd_LN-1" target="0VFMk2iIivQLIlKOtwQV-6">
          <mxGeometry relative="1" as="geometry" />
        </mxCell>
        <mxCell id="UAP9oiiPjU8Sd_jXd_LN-1" value="redirected to url_for &#39;manage_tasks&#39;" style="rounded=1;whiteSpace=wrap;html=1;absoluteArcSize=1;arcSize=14;strokeWidth=2;" vertex="1" parent="1">
          <mxGeometry x="308.25" y="1200" width="118.5" height="40" as="geometry" />
        </mxCell>
        <mxCell id="UAP9oiiPjU8Sd_jXd_LN-7" style="edgeStyle=orthogonalEdgeStyle;rounded=0;orthogonalLoop=1;jettySize=auto;html=1;entryX=0.5;entryY=0;entryDx=0;entryDy=0;" edge="1" parent="1" source="UAP9oiiPjU8Sd_jXd_LN-5" target="0VFMk2iIivQLIlKOtwQV-3">
          <mxGeometry relative="1" as="geometry" />
        </mxCell>
        <mxCell id="UAP9oiiPjU8Sd_jXd_LN-5" value="arr = list of incomplete tasks&amp;nbsp;&lt;div&gt;key = dueDate&lt;/div&gt;" style="rounded=1;whiteSpace=wrap;html=1;absoluteArcSize=1;arcSize=14;strokeWidth=2;" vertex="1" parent="1">
          <mxGeometry x="287.5" y="850" width="160" height="50" as="geometry" />
        </mxCell>
      </root>
    </mxGraphModel>
  </diagram>
</mxfile>
